<svg width="512" height="512" viewBox="0 0 512 512" xmlns="http://www.w3.org/2000/svg"><defs><linearGradient id="a" x1="0%" y1="0%" x2="100%" y2="100%"><stop offset="0%" style="stop-color:#004161;stop-opacity:1"/><stop offset="50%" style="stop-color:#08c;stop-opacity:1"/><stop offset="100%" style="stop-color:#004161;stop-opacity:1"/></linearGradient><linearGradient id="c" x1="0%" y1="0%" x2="100%" y2="100%"><stop offset="0%" style="stop-color:#fff;stop-opacity:1"/><stop offset="100%" style="stop-color:#64b5f6;stop-opacity:1"/></linearGradient><linearGradient id="d" x1="0" y1="0" x2="1" y2="1"><stop offset="0%" stop-color="#00dbde"/><stop offset="100%" stop-color="#fc00ff"/></linearGradient><filter id="b" x="-20%" y="-20%" width="140%" height="140%"><feDropShadow dx="2" dy="4" stdDeviation="3" flood="#000" flood-opacity=".3"/></filter></defs><rect width="510" height="510" rx="96" fill="url(#a)"/><g opacity=".2"><rect x="68" y="47" width="44" height="33" fill="#bbdefb" rx="4"/><rect x="111" y="10" width="46" height="35" fill="#bbdefb" rx="4"/><rect x="10" y="70" width="43" height="29" fill="#fff" rx="4"/><rect x="88" y="122" width="29" height="45" fill="#bbdefb" rx="4"/>\<rect x="358" y="30" width="33" height="42" fill="#fff" rx="4"/><rect x="462" y="50" width="30" height="40" fill="#bbdefb" rx="4"/><rect x="448" y="180" width="45" height="37" fill="#bbdefb" rx="4"/><rect x="455" y="122" width="28" height="36" fill="#fff" rx="4"/><rect x="390" y="70" width="35" height="28" fill="#fff" rx="4"/><rect x="80" y="418" width="42" height="38" fill="#fff" rx="4"/><rect x="35" y="460" width="54" height="32" fill="#bbdefb" rx="4"/><rect x="200" y="470" width="34" height="26" fill="#bbdefb" rx="4"/><rect x="40" y="365" width="37" height="28" fill="#bbdefb" rx="4"/><rect x="15" y="400" width="40" height="43" fill="#bbdefb" rx="4"/><rect x="12" y="152" width="39" height="44" fill="#bbdefb" rx="4"/><rect x="122" y="311" width="37" height="28" fill="#bbdefb" rx="4"/><rect x="150" y="422" width="40" height="43" fill="#bbdefb" rx="4"/><rect x="93" y="364" width="39" height="44" fill="#bbdefb" rx="4"/><rect x="350" y="440" width="38" height="47" fill="#fff" rx="4"/><rect x="400" y="452" width="25" height="39" fill="#fff" rx="4"/><rect x="472" y="362" width="27" height="34" fill="#fff" rx="4"/><rect x="460" y="410" width="31" height="41" fill="#bbdefb" rx="4"/><rect x="396" y="400" width="36" height="30" fill="#bbdefb" rx="4"/><rect x="266" y="448" width="42" height="38" fill="#fff" rx="4"/><rect x="220" y="60" width="54" height="32" fill="#bbdefb" rx="4"/><rect x="208" y="370" width="34" height="26" fill="#bbdefb" rx="4"/><rect x="140" y="145" width="37" height="28" fill="#bbdefb" rx="4"/><rect x="255" y="8" width="40" height="43" fill="#bbdefb" rx="4"/><rect x="160" y="37" width="39" height="44" fill="#bbdefb" rx="4"/></g><g transform="matrix(.8 0 0 .8 -125 -150)" filter="url(#b)"><path d="M226.328 494.722q218.64-95.258 291.59-125.6c138.855-57.755 167.707-67.787 186.513-68.118 4.137-.073 13.385.952 19.375 5.813 5.059 4.104 6.45 9.649 7.117 13.54s1.495 12.757.836 19.684c-7.525 79.061-40.084 270.924-56.648 359.474-7.009 37.47-20.81 50.033-34.17 51.262-29.036 2.672-51.085-19.189-79.208-37.624-44.006-28.847-68.867-46.804-111.583-74.953-49.366-32.531-17.364-50.411 10.77-79.631C468.281 550.92 596.214 434.556 598.69 424c.31-1.32.597-6.241-2.326-8.84-2.924-2.598-7.239-1.71-10.353-1.003q-6.62 1.503-210.902 139.4-29.933 20.553-54.223 20.028c-17.853-.386-52.194-10.094-77.723-18.393-31.313-10.178-56.2-15.56-54.032-32.846q1.692-13.505 37.196-27.624" fill="url(#d)" stroke="#000" stroke-width="2" stroke-linecap="round" stroke-linejoin="round"/></g></svg>